<mxfile host="app.diagrams.net" modified="2024-04-14T04:37:13.779Z" agent="Mozilla/5.0 (Windows NT 10.0; Win64; x64) AppleWebKit/537.36 (KHTML, like Gecko) Chrome/123.0.0.0 Safari/537.36" etag="5VvsRlB3XkfXPWOuhjIS" version="24.2.3" type="device">
  <diagram id="C5RBs43oDa-KdzZeNtuy" name="Page-1">
    <mxGraphModel dx="1434" dy="738" grid="1" gridSize="10" guides="1" tooltips="1" connect="1" arrows="1" fold="1" page="1" pageScale="1" pageWidth="827" pageHeight="1169" math="0" shadow="0">
      <root>
        <mxCell id="WIyWlLk6GJQsqaUBKTNV-0" />
        <mxCell id="WIyWlLk6GJQsqaUBKTNV-1" parent="WIyWlLk6GJQsqaUBKTNV-0" />
        <mxCell id="8eX8kVVmRZLDJjs02950-40" value="&lt;span style=&quot;font-size: 13px;&quot;&gt;&lt;b&gt;data_validation_dir&lt;/b&gt;&lt;/span&gt;" style="rounded=1;whiteSpace=wrap;html=1;strokeColor=none;" vertex="1" parent="WIyWlLk6GJQsqaUBKTNV-1">
          <mxGeometry x="323.72" y="80" width="120" height="30" as="geometry" />
        </mxCell>
        <mxCell id="8eX8kVVmRZLDJjs02950-41" value="" style="edgeStyle=orthogonalEdgeStyle;rounded=1;orthogonalLoop=1;jettySize=auto;html=1;flowAnimation=1;strokeColor=#FF0080;strokeWidth=2;" edge="1" parent="WIyWlLk6GJQsqaUBKTNV-1" source="8eX8kVVmRZLDJjs02950-64">
          <mxGeometry relative="1" as="geometry">
            <mxPoint x="571" y="205" as="targetPoint" />
            <Array as="points">
              <mxPoint x="571.44" y="180" />
              <mxPoint x="571.44" y="180" />
            </Array>
          </mxGeometry>
        </mxCell>
        <mxCell id="8eX8kVVmRZLDJjs02950-42" value="" style="rounded=1;whiteSpace=wrap;html=1;strokeColor=none;" vertex="1" parent="WIyWlLk6GJQsqaUBKTNV-1">
          <mxGeometry x="210" y="110" width="131" height="30" as="geometry" />
        </mxCell>
        <mxCell id="8eX8kVVmRZLDJjs02950-43" value="&lt;div style=&quot;text-align: right;&quot;&gt;&lt;span style=&quot;font-size: 13px;&quot;&gt;&lt;b&gt;validation_status_file_path&lt;/b&gt;&lt;/span&gt;&lt;br&gt;&lt;/div&gt;" style="rounded=1;whiteSpace=wrap;html=1;strokeColor=none;" vertex="1" parent="WIyWlLk6GJQsqaUBKTNV-1">
          <mxGeometry x="308" y="125" width="101" height="30" as="geometry" />
        </mxCell>
        <mxCell id="8eX8kVVmRZLDJjs02950-44" value="&lt;b&gt;required_files_list&lt;/b&gt;" style="rounded=1;whiteSpace=wrap;html=1;strokeColor=none;" vertex="1" parent="WIyWlLk6GJQsqaUBKTNV-1">
          <mxGeometry x="340" y="168" width="110" height="30" as="geometry" />
        </mxCell>
        <mxCell id="8eX8kVVmRZLDJjs02950-45" value="" style="edgeStyle=orthogonalEdgeStyle;rounded=1;orthogonalLoop=1;jettySize=auto;html=1;flowAnimation=1;strokeColor=#FF0080;strokeWidth=2;" edge="1" parent="WIyWlLk6GJQsqaUBKTNV-1">
          <mxGeometry relative="1" as="geometry">
            <mxPoint x="572.5" y="245" as="sourcePoint" />
            <mxPoint x="572.5" y="295" as="targetPoint" />
          </mxGeometry>
        </mxCell>
        <mxCell id="8eX8kVVmRZLDJjs02950-46" value="&lt;b&gt;initiate_data_validation&lt;/b&gt;" style="rounded=1;whiteSpace=wrap;html=1;fillColor=#6666FF;fontColor=#ffffff;strokeColor=#3700CC;flipH=1;container=1;" vertex="1" parent="WIyWlLk6GJQsqaUBKTNV-1">
          <mxGeometry x="500" y="209" width="143.44" height="31" as="geometry" />
        </mxCell>
        <mxCell id="8eX8kVVmRZLDJjs02950-48" value="&lt;b&gt;validate_all_files_exist&lt;/b&gt;" style="whiteSpace=wrap;html=1;fillColor=#6666FF;strokeColor=#3700CC;fontColor=#ffffff;rounded=1;" vertex="1" parent="WIyWlLk6GJQsqaUBKTNV-1">
          <mxGeometry x="500" y="295" width="140" height="35" as="geometry" />
        </mxCell>
        <mxCell id="8eX8kVVmRZLDJjs02950-49" value="" style="edgeStyle=orthogonalEdgeStyle;rounded=1;orthogonalLoop=1;jettySize=auto;html=1;flowAnimation=1;strokeColor=#FF0080;strokeWidth=2;" edge="1" parent="WIyWlLk6GJQsqaUBKTNV-1">
          <mxGeometry relative="1" as="geometry">
            <Array as="points">
              <mxPoint x="575" y="481" />
            </Array>
            <mxPoint x="575" y="475" as="sourcePoint" />
            <mxPoint x="575" y="628" as="targetPoint" />
          </mxGeometry>
        </mxCell>
        <mxCell id="8eX8kVVmRZLDJjs02950-55" value="" style="edgeStyle=orthogonalEdgeStyle;rounded=0;orthogonalLoop=1;jettySize=auto;html=1;flowAnimation=1;strokeColor=#006600;strokeWidth=2;" edge="1" parent="WIyWlLk6GJQsqaUBKTNV-1">
          <mxGeometry relative="1" as="geometry">
            <mxPoint x="357" y="470" as="sourcePoint" />
            <mxPoint x="356.9694117647059" y="627.9999999999998" as="targetPoint" />
          </mxGeometry>
        </mxCell>
        <mxCell id="8eX8kVVmRZLDJjs02950-56" value="&lt;span style=&quot;font-size: 13px;&quot;&gt;&lt;b&gt;validation status&lt;/b&gt;&lt;/span&gt;" style="rounded=1;whiteSpace=wrap;html=1;strokeColor=none;" vertex="1" parent="WIyWlLk6GJQsqaUBKTNV-1">
          <mxGeometry x="294" y="455.5" width="120" height="30" as="geometry" />
        </mxCell>
        <mxCell id="8eX8kVVmRZLDJjs02950-57" value="&lt;b&gt;data_validation_artifact&lt;/b&gt;" style="whiteSpace=wrap;html=1;fillColor=#FFFF99;strokeColor=#d6b656;rounded=1;" vertex="1" parent="WIyWlLk6GJQsqaUBKTNV-1">
          <mxGeometry x="511.72" y="627" width="139.94" height="40" as="geometry" />
        </mxCell>
        <mxCell id="8eX8kVVmRZLDJjs02950-59" value="&lt;span style=&quot;font-size: 13px;&quot;&gt;&lt;b&gt;validation_status&lt;/b&gt;&lt;/span&gt;" style="rounded=1;whiteSpace=wrap;html=1;strokeColor=none;" vertex="1" parent="WIyWlLk6GJQsqaUBKTNV-1">
          <mxGeometry x="332.28" y="630" width="111.44" height="30" as="geometry" />
        </mxCell>
        <mxCell id="8eX8kVVmRZLDJjs02950-62" value="" style="edgeStyle=elbowEdgeStyle;elbow=vertical;endArrow=classic;html=1;curved=0;rounded=1;endSize=8;startSize=8;flowAnimation=1;strokeColor=#006600;strokeWidth=2;entryX=0.25;entryY=1;entryDx=0;entryDy=0;exitX=0.417;exitY=1.106;exitDx=0;exitDy=0;exitPerimeter=0;" edge="1" parent="WIyWlLk6GJQsqaUBKTNV-1" source="lY8e4gBOJ8Q8jzytJCp8-31">
          <mxGeometry width="50" height="50" relative="1" as="geometry">
            <mxPoint x="759.8599999999999" y="470" as="sourcePoint" />
            <mxPoint x="359.9999999999999" y="660" as="targetPoint" />
            <Array as="points">
              <mxPoint x="580" y="710" />
            </Array>
          </mxGeometry>
        </mxCell>
        <mxCell id="8eX8kVVmRZLDJjs02950-63" value="&lt;font size=&quot;1&quot; color=&quot;#ff0000&quot; style=&quot;&quot;&gt;&lt;b style=&quot;font-size: 18px;&quot;&gt;ISD_Data_Validation_Workflow&lt;/b&gt;&lt;/font&gt;" style="rounded=1;whiteSpace=wrap;html=1;strokeColor=none;" vertex="1" parent="WIyWlLk6GJQsqaUBKTNV-1">
          <mxGeometry x="443.72" y="30" width="290" height="30" as="geometry" />
        </mxCell>
        <mxCell id="8eX8kVVmRZLDJjs02950-64" value="&lt;b&gt;data_validaion_config&lt;/b&gt;" style="rounded=1;whiteSpace=wrap;html=1;strokeWidth=1;fillColor=#FFFF99;strokeColor=#d6b656;shadow=0;glass=0;flipV=1;" vertex="1" parent="WIyWlLk6GJQsqaUBKTNV-1">
          <mxGeometry x="511" y="115.89999999999998" width="132.44" height="34.1" as="geometry" />
        </mxCell>
        <mxCell id="8eX8kVVmRZLDJjs02950-65" value="&lt;font style=&quot;font-size: 13px;&quot;&gt;&lt;b&gt;False&lt;/b&gt;&lt;/font&gt;" style="endArrow=classic;html=1;rounded=0;flowAnimation=1;strokeColor=#999999;strokeWidth=2;entryX=1;entryY=0.5;entryDx=0;entryDy=0;" edge="1" parent="WIyWlLk6GJQsqaUBKTNV-1">
          <mxGeometry width="50" height="50" relative="1" as="geometry">
            <mxPoint x="518" y="425" as="sourcePoint" />
            <mxPoint x="379" y="424.6500000000001" as="targetPoint" />
          </mxGeometry>
        </mxCell>
        <mxCell id="8eX8kVVmRZLDJjs02950-67" value="" style="edgeStyle=orthogonalEdgeStyle;rounded=1;orthogonalLoop=1;jettySize=auto;html=1;flowAnimation=1;strokeColor=#FF0080;strokeWidth=2;exitX=0.438;exitY=1.05;exitDx=0;exitDy=0;exitPerimeter=0;" edge="1" parent="WIyWlLk6GJQsqaUBKTNV-1">
          <mxGeometry relative="1" as="geometry">
            <mxPoint x="574.0137199999999" y="669" as="sourcePoint" />
            <Array as="points">
              <mxPoint x="575" y="702" />
            </Array>
            <mxPoint x="575" y="767" as="targetPoint" />
          </mxGeometry>
        </mxCell>
        <mxCell id="8eX8kVVmRZLDJjs02950-68" value="&lt;b&gt;To be continue to model_trainer component&lt;/b&gt;" style="whiteSpace=wrap;html=1;fillColor=#f8cecc;strokeColor=#b85450;rounded=1;" vertex="1" parent="WIyWlLk6GJQsqaUBKTNV-1">
          <mxGeometry x="530" y="767" width="110" height="60" as="geometry" />
        </mxCell>
        <mxCell id="8eX8kVVmRZLDJjs02950-69" value="" style="edgeStyle=entityRelationEdgeStyle;startArrow=none;endArrow=none;segment=10;curved=1;sourcePerimeterSpacing=0;targetPerimeterSpacing=0;rounded=0;strokeColor=#994C00;strokeWidth=2;exitX=1;exitY=0.75;exitDx=0;exitDy=0;" edge="1" parent="WIyWlLk6GJQsqaUBKTNV-1" source="8eX8kVVmRZLDJjs02950-40">
          <mxGeometry relative="1" as="geometry">
            <mxPoint x="460" y="75" as="sourcePoint" />
            <mxPoint x="510" y="130" as="targetPoint" />
            <Array as="points">
              <mxPoint x="623" y="217" />
              <mxPoint x="493" y="72" />
              <mxPoint x="510" y="120" />
              <mxPoint x="633" y="217" />
              <mxPoint x="633" y="207" />
            </Array>
          </mxGeometry>
        </mxCell>
        <mxCell id="8eX8kVVmRZLDJjs02950-70" value="" style="edgeStyle=entityRelationEdgeStyle;startArrow=none;endArrow=none;segment=10;curved=1;sourcePerimeterSpacing=0;targetPerimeterSpacing=0;rounded=0;exitX=0;exitY=1;exitDx=0;exitDy=0;strokeColor=#990099;strokeWidth=2;" edge="1" parent="WIyWlLk6GJQsqaUBKTNV-1" source="8eX8kVVmRZLDJjs02950-64" target="8eX8kVVmRZLDJjs02950-44">
          <mxGeometry relative="1" as="geometry">
            <mxPoint x="532" y="182" as="sourcePoint" />
            <mxPoint x="490" y="201" as="targetPoint" />
            <Array as="points">
              <mxPoint x="681" y="447" />
            </Array>
          </mxGeometry>
        </mxCell>
        <mxCell id="8eX8kVVmRZLDJjs02950-72" value="" style="edgeStyle=entityRelationEdgeStyle;startArrow=none;endArrow=none;segment=10;curved=1;sourcePerimeterSpacing=0;targetPerimeterSpacing=0;rounded=0;strokeColor=#006600;strokeWidth=2;" edge="1" parent="WIyWlLk6GJQsqaUBKTNV-1">
          <mxGeometry relative="1" as="geometry">
            <mxPoint x="450" y="140" as="sourcePoint" />
            <mxPoint x="511" y="140" as="targetPoint" />
            <Array as="points">
              <mxPoint x="601" y="237" />
              <mxPoint x="471" y="92" />
              <mxPoint x="611" y="237" />
              <mxPoint x="611" y="227" />
            </Array>
          </mxGeometry>
        </mxCell>
        <mxCell id="8eX8kVVmRZLDJjs02950-73" value="" style="edgeStyle=entityRelationEdgeStyle;startArrow=none;endArrow=none;segment=10;curved=1;sourcePerimeterSpacing=0;targetPerimeterSpacing=0;rounded=0;strokeColor=#990099;strokeWidth=2;flowAnimation=1;" edge="1" parent="WIyWlLk6GJQsqaUBKTNV-1">
          <mxGeometry relative="1" as="geometry">
            <mxPoint x="447" y="646" as="sourcePoint" />
            <mxPoint x="511.5" y="646" as="targetPoint" />
            <Array as="points">
              <mxPoint x="457" y="615" />
              <mxPoint x="457" y="615" />
              <mxPoint x="477" y="625" />
              <mxPoint x="487" y="625" />
              <mxPoint x="450.5" y="964" />
              <mxPoint x="591.5" y="746" />
              <mxPoint x="480.5" y="884" />
              <mxPoint x="461.5" y="601" />
              <mxPoint x="601.5" y="746" />
              <mxPoint x="601.5" y="736" />
            </Array>
          </mxGeometry>
        </mxCell>
        <mxCell id="lY8e4gBOJ8Q8jzytJCp8-24" value="" style="rhombus;whiteSpace=wrap;html=1;fillColor=#00994D;" vertex="1" parent="WIyWlLk6GJQsqaUBKTNV-1">
          <mxGeometry x="520" y="381" width="110" height="89" as="geometry" />
        </mxCell>
        <mxCell id="lY8e4gBOJ8Q8jzytJCp8-26" value="" style="edgeStyle=orthogonalEdgeStyle;rounded=1;orthogonalLoop=1;jettySize=auto;html=1;flowAnimation=1;strokeColor=#FF0080;strokeWidth=2;" edge="1" parent="WIyWlLk6GJQsqaUBKTNV-1">
          <mxGeometry relative="1" as="geometry">
            <mxPoint x="574.5" y="332" as="sourcePoint" />
            <mxPoint x="574.5" y="382" as="targetPoint" />
          </mxGeometry>
        </mxCell>
        <mxCell id="lY8e4gBOJ8Q8jzytJCp8-27" value="&lt;span style=&quot;font-size: 13px;&quot;&gt;&lt;b&gt;if exist&lt;/b&gt;&lt;/span&gt;" style="rounded=1;whiteSpace=wrap;html=1;strokeColor=none;" vertex="1" parent="WIyWlLk6GJQsqaUBKTNV-1">
          <mxGeometry x="552" y="415.31" width="45" height="16.69" as="geometry" />
        </mxCell>
        <mxCell id="lY8e4gBOJ8Q8jzytJCp8-28" value="" style="shape=image;verticalLabelPosition=bottom;labelBackgroundColor=default;verticalAlign=top;aspect=fixed;imageAspect=0;image=data:image/jpeg,/9j/4AAQSkZJRgABAQEAYABgAAD/2wBDAAoHBwkHBgoJCAkLCwoMDxkQDw4ODx4WFxIZJCAmJSMgIyIoLTkwKCo2KyIjMkQyNjs9QEBAJjBGS0U+Sjk/QD3/2wBDAQsLCw8NDx0QEB09KSMpPT09PT09PT09PT09PT09PT09PT09PT09PT09PT09PT09PT09PT09PT09PT09PT09PT3/wAARCADcANwDASIAAhEBAxEB/8QAHwAAAQUBAQEBAQEAAAAAAAAAAAECAwQFBgcICQoL/8QAtRAAAgEDAwIEAwUFBAQAAAF9AQIDAAQRBRIhMUEGE1FhByJxFDKBkaEII0KxwRVS0fAkM2JyggkKFhcYGRolJicoKSo0NTY3ODk6Q0RFRkdISUpTVFVWV1hZWmNkZWZnaGlqc3R1dnd4eXqDhIWGh4iJipKTlJWWl5iZmqKjpKWmp6ipqrKztLW2t7i5usLDxMXGx8jJytLT1NXW19jZ2uHi4+Tl5ufo6erx8vP09fb3+Pn6/8QAHwEAAwEBAQEBAQEBAQAAAAAAAAECAwQFBgcICQoL/8QAtREAAgECBAQDBAcFBAQAAQJ3AAECAxEEBSExBhJBUQdhcRMiMoEIFEKRobHBCSMzUvAVYnLRChYkNOEl8RcYGRomJygpKjU2Nzg5OkNERUZHSElKU1RVVldYWVpjZGVmZ2hpanN0dXZ3eHl6goOEhYaHiImKkpOUlZaXmJmaoqOkpaanqKmqsrO0tba3uLm6wsPExcbHyMnK0tPU1dbX2Nna4uPk5ebn6Onq8vP09fb3+Pn6/9oADAMBAAIRAxEAPwD2PrRnNHWj6UALSewo9hR04HWgBc9u9cH4g+K+m6XcPbabA2oSoSGkD7IgfZuS34DHvVr4oaxLpPhJordikt7IINwOCFwS2PqBj8a8/wDh/wCB4/FUtxdX7yJp9swj2Rna0r4zjPZQCOnJzQBrf8Ll1D/oFWv/AH9b/Cj/AIXLqH/QKtP+/rf4V2P/AArLwoP+YWT/ANvEv/xVH/CsvCn/AECv/JiX/wCKoA47/hcuof8AQKtP+/rf4Uf8Ll1D/oFWn/f1v8K7H/hWXhT/AKBX/kxL/wDFUv8AwrLwp/0Cv/JiX/4qgDjP+Fy6h/0CrT/v63+FL/wuXUP+gVaf9/W/wrsf+FZeFP8AoFf+TEv/AMVR/wAKy8Kf9Ar/AMmJf/iqAOO/4XLqH/QKtP8Av63+FH/C5dQ/6BVp/wB/W/wrsf8AhWXhT/oFf+TEv/xVH/Cs/Ch/5hXH/XxL/wDFUAcd/wALl1D/AKBVp/39b/Cj/hcuof8AQKtP+/rf4V2P/Cs/Ch/5hX/kxL/8VR/wrLwp/wBAr/yYl/8AiqAOO/4XLqH/AECrT/v63+FH/C5dR/6BVp/39b/Cux/4Vn4U/wCgV/5MS/8AxVH/AArPwp/0Cv8AyYl/+KoA47/hcuof9Aq0/wC/rf4V1fgr4gW/idmtLmNLXUVyyxBsrKvqpPcdx+P0lb4Y+FWUqNMKkjG4XEuR7/erxfUrdtF1+6t7aaQNZXLpFMDhwUYgNkdDxQB9J9KOg964vwH49j8RQrY6gVj1VF+i3AH8S+/qPxHHTtPegBelJR7mj3NAAPU0e9HWigApaTrS0AH0pPYUewo6cDrQAdOB1o6UdKP50AedfGX/AJAum/8AXyf/AEA1L8G/+RXvv+v5v/RaVD8Zf+QLpv8A19N/6Aam+Df/ACK99/1/N/6LSgD0GkoooAPc0e5o9zR1oAOvNHWjrR1+lAB1+lHX6UdfpRQAUewo9hR7CgA9hR0o6UdPrQAdMV87eIoxN441GJiQsmpvGSOuGlwcfnX0SOPrXzxrv/I/3n/YXP8A6OoAd4j8Oah4O1pY5GcANvtbqPK78Hgg9mHcf0r0/wABePY/EUS2GosseqRr16LcAfxL6N6j8Rx06fWtFstf02Wx1GLzIX5BHDI3ZlPYj/PFeEeJPDeoeDtYSOV327t9rdx/Lvx3B7MO4/pQB9De5o9zXE+AvHsfiGNbDUWWPU0HB6C4A/iHo3qPxHt23WgAo6/SjrR1oAOv0paTrS0AB9utJ0paT+dAB0+tHSjpRQB518Zf+QLpv/Xyf/QDUvwb/wCRXvv+v5v/AEWlRfGX/kC6b/18n/0A1L8G/wDkV77/AK/m/wDRaUAegUe5o9zR1+lAB160daOtHX6UAHX6UdfpR1+lFABR7Cj2FHsKAD2FHSjpR0+tAB0+tHT60dPrRQAD36188a7/AMj/AHntqx/9HV9D14l8UPDsul+IpNRRD9jv23hx/BJj5lJ7E4yPqfSgD231JqjrOjWevaZLY6hF5kL88cMjdmU9iK860T4vrBYxw6zZTTTxqF86Bl/ee5UkYP0P5Vpf8Lk0j/oH6h+Uf/xVAHnfiTw1qHg/V0jld9m7fa3ceV345BHow7j+leneAvHqeIYl0/UnVNTReD0FwB3Ho3qPxHtj6x8S/DmvabLY6hpWoSQyegjDIezKd3BFeYlxBdb7OWYCN90Uh+Vxg8Hg8H6UAfTvX6UdfpXD+AvHyeII10/UnVNTRflboLgDuPRvUfiPbuOtABS5FJ14FLQAnSjp9aXpSUAH1o96KPegDzr4y/8AIF03/r6P/oBqX4N/8ivff9fzf+i0qH4y/wDIF03/AK+W/wDQDU3wb/5Fe+/6/m/9FpQB6B1+lL1pKOv0oAOv0o6/Sjr9KWgA9qT2FHsKPYUAHTgUdKOlHT60AHT60dPrR0+tH86ADpz3o6c0dOTR7mgA9zUN3Z2+oWslteQRzwSDDxyLuUj6VN7migDg7v4P6DPKz289/aqf4I5VYD6bgT+tQf8ACmdJ/wCgnqWPrH/8RXofWjrQB55/wpnSf+gnqWPrH/8AEUf8KZ0n/oJ6lj6x/wDxFeh9fpRQB86+JdHfwt4lnsYrlnNuyyRTL8rAEblPHRh6ivd/DN5PqHhfS7u5ffPPaRySPjG5ioJOK8d+KP8AyPd5/wBc4v8A0AV634N/5ErRP+vGH/0AUAbXsKXpSUtACdKKKPrQAe9HuaPc0deaAPOfjL/yBdN/6+T/AOgGpvg3/wAivff9fzf+i0qL4y/8gXTf+vo/+gGpfg3z4Xvv+v5v/RaUAegdfpR1+lHX6UtACUewo9hR7CgA9hR0o6UdPrQAdPrR0+tHT60dOtAB0+tHTk0vuaT3NAB7mj3o96WgBKOv0o6/Sjr9KADrR1o60v8AKgBKOvAo9hR7CgDwr4o/8j3ef9c4v/QBXrng3/kStE/68Yf/AEAV5H8UP+R7vP8ArnF/6AK9b8G/8iVonr9hh/8AQBQBtfzpcUnT60tACe9HuaPc0devSgA69aOtUdZ1i00LTJb6/kKQR9hyznsqjuT/AJ4ryPVvixrl5O39n+VYQfwqqCR8e7MMfkKAPSvF3hKHxdZ29vNdzWywSGQGJVJY4x3p/hLwtD4T02azgupblZZjMXlCgglQMcf7teQ/8LH8U/8AQWf/AL8Rf/E0f8LH8U/9BZ/+/EX/AMTQB73R7CvBP+Fj+Kf+gs//AH4i/wDiaP8AhY/in/oLP/34i/8AiaAPe/YUdK8E/wCFj+Kf+gs//fiL/wCJo/4WP4p/6Cz/APfiL/4mgD3vp9aOn1rwP/hY/in/AKCz/wDfiL/4ml/4WP4p/wCgs/8A34i/+JoA97+vWj3NeB/8LH8U/wDQWf8A78Rf/E0f8LH8U/8AQWf/AL8xf/E0Ae+e5o68mvBP+Fj+Kf8AoLP/AN+Iv/iaT/hY/in/AKCz/wDfiL/4mgD3yjrXgf8AwsfxT/0Fn/78xf8AxNH/AAsfxT/0Fn/78Rf/ABNAHvnWjr9K8E/4WP4p/wCgs/8A34i/+Jo/4WP4p/6Cz/8AfiL/AOJoA97o68CvEdN+KviGznVruSG+i/iSSMIcezKBg/UGvWfDniKz8TaUl5YsRztkib70Td1P+PegDV9hR04FHTgUdPrQB4V8Uf8Ake7z/rnF/wCgCvW/Bp/4orRPX7DD/wCgCvJPij/yPd5/1zi/9AFet+DP+RK0T/rxh/8AQBQBtdPrS0lLzQAnXr0o60daOv0oA8l+MmoSNqmn6fuIhjgM5HqzMVH5BT+Zrzeu9+MX/I2Wn/Xin/ob1wVABRRWjp/h3WNWtvtGnaXc3UG4p5kYXGR1HJFAGdRW3/whXib/AKAN9+S//FUf8IV4m/6AN9+S/wDxVAGJRW3/AMIV4m/6AN7+S/8AxVVk8OaxLqM2nxaZcPewKHlgG3cgOME8+46etAGbRW3/AMIV4m/6AN7+S/8AxVZFxby2txJBcRtFNGxV0YYKkdQaAI6KfDFJcTxwQRtJNKwSONBksx6AVsf8IV4m/wCgDe/kn/xVAGJRWjdeHtXsrq2tbrTp4ri6O2CJtu6Q+wB/nirX/CFeJf8AoA3v5L/8VQBiUVt/8IV4m/6AN7+S/wDxVH/CFeJv+gDffkv/AMVQBiUVq3nhfXNPtJLq90m6t7ePG+SQLgZOB0PqRWVQAV3Hwk1GS28XPZgnyru3bcvbcmCD+RYfjXD11fwv/wCR/s/+uM3/AKDQB7v0+tHT60dPrR0+tAHhXxR/5Hu8/wCucX/oAr1vwbx4K0T/AK8Yf/QBXknxQ/5Hu8/65xf+gCvW/BuB4K0Q/wDTjD/6AKANr3NLSe5paAE6/Sjr9KOv0ooA8a+MX/I2Wv8A14p/6G9cFXe/GH/kbLT/AK8U/wDQ3rgqACvY/hPd29v4NKzXEMbm7lO15ADjI7ZrxykIBPKgn3FAH07Dd21wxWCeKVgMkI4Yj8qm4Xk15B8GABr2q4AH+ix9B/ttXrV3/wAec+f+ebfyNAEX9pWOM/bLY/8AbVf8a8b8W63LpHxTudU0+RZGiaIja2VkXykDKSOx6f8A6q4hEXy1+Veg7U/AHQYoA+ltJ1O21nS7fULR90E6blz1HqD7g5B+leb/ABa8M7ZE1+1j+VsRXYA79Ef/ANlP/Aazfhd4q/srVf7Ju5MWd6/7oseI5v8ABun1x616/fWUOpWE9pdJuhnQxuPYjFAHlfwj8NfabyXX7pP3UBMNoD3fo7/h90fVq9UvbuCwspru6cR28KF3Y9gKZpem2+kaZbWFmmy3t4xGg74Hc+56mvM/iv4q86YaDaP+7jIe7Kn7zdVT8Op98elAHPW+vy+IfibpupXR8tDeIEVjxFGM4Gf5+5Ne2/2nY/8AP5bY/wCuq/418z9RzTSi7T8q9PSgD6jRlkRWQhkYZDA5BHtUc1zBb7fOmjiDdC7hc/TNZ/hT/kUNGA4AsYf/AEAVwvxpAMOjZAPzTdR7JQB0HxFvrSXwHqUcVzA7kR4VZASf3i9s14ZSBVHIUA+wpaACur+F/wDyP9n/ANcZv/Qa5Sur+F//ACUCz/64zf8AoNAHu/T60dKOnWj3NAHhXxR/5Hu8/wCucX/oAr1vwZ/yJWiH/pxh/wDQBXknxR/5Hu8/65xf+gCvW/Bv/IlaJ/14w/8AoAoA2vrS9aTr9KXrQAnWj2FHsKPYUAeNfGH/AJGy0/68U/8AQ3rgq734w/8AI2Wn/Xin/ob1wVABRRRQB6J8Gf8AkPar/wBe0f8A6G1es3f/AB5z/wDXNv5V5L8Gf+Q9qv8A16x/+htXrV3/AMec5P8Azzb+VAHzCn3F+gpaan3F+gpxIGSTgDvQBPY2FzquoW9hYruurlwkY9D3Y+gAySfavpWzhkgsoIZp2nkjjVXlYYMhAwWP161wXwp8JnT7A65fRkXV4mIFYcxw9c/VuD9Me9df4k1yHw7odxqE+D5YxGmf9Y5+6v5/pmgDRnEr28gt2VJShCMwyA2OCR3Ga+a9Ut7y01W6g1IN9sSVvOLHJLZyTnvnOc9817/4W8QReJtBgv4gFcjZNGP+Wcg6r9O49iK5j4oeEf7UsP7YsY83lqv75VHMsQ/qvX6Z9qAPHKQ9D9KX0pD90/SgD6O8K/8AIo6MB/z4w/8AoArhvjQMQ6N/vTfySu58K/8AIo6N/wBeMP8A6AK4b40/6nRv96b+SUAeV0UUUAFdX8L/APkf7P8A64zf+g1yldX8L/8Akf7L/rjN/wCg0Ae7+5o9zR7migDwr4o/8j3ef9c4v/QBXrfg0f8AFFaJ6fYYf/QBXknxR/5Hu8/65xf+gCvW/BvPgrRPT7DD/wCgCgDa6/SlpKWgBD6CjpS0nT60AeNfGH/kbLT/AK8U/wDQ3rgq734xA/8ACV2h/wCnFf8A0N64KgAooooA9C+DbKmuaqzsqj7NGMk4/javV7qeI2k/72P/AFbfxj0NfMxAPUA0m1f7o/KgAT7i/QV03gTwuPEuvL9rCjTbQiS4LHAkP8Mf44yfYe9c1QQD1ANAH08J4eAJI8DjAYV4l8SPFP8Ab+ufZbV82FkSiEHiR+jN9Ow+hPeuN2r/AHR+VLQB1Xw+8UHw3rwSd8WF4RHP6If4X/DofY+1e6faIu0sf/fQr5hpNq/3R+VAHY/EPwqmg6t9rsQp0+7YlQpBET9Sn07j8R2rjz0P0pAAOgApaAPorwvNGvhLR1MiBhZQggsP7grh/jNIjw6NsZWw02cHPZK8s2j0H5UAAdABQAtFFFABXWfC/wD5H+z/AOuM3/oNcnXWfC8f8V/Z+0ExP/fIoA9396Tr9KOv0o6/SgDwr4o/8j3ef9c4v/QBXrfgz/kStE/68Yf/AEAV5J8Uf+R7vP8ArnF/6AK9b8G/8iVon/XjD/6AKANrrS0nsKWgBOlHT60dPrR9etAHA/FTwxPq2mw6lZRGW4swRJGoyzRnnj1IPOPQmvGwQRkHI9a+ovrXM6x8PPD2tTtcXFl5M7nLSWzmMsfUgcE++KAPA6K9o/4VB4cx/rNQH/bz/wDWo/4VB4cP/LTUP/An/wCtQB4vRXtH/CoPDv8Af1H/AMCf/rUf8Kg8O/39R/8AAn/61AHi9Fe0f8Kg8O/39R/8Cf8A61H/AAp/w7/f1D/wJ/8ArUAeL0V7R/wqDw7/AH9R/wDAn/61H/CoPDufv6j/AOBP/wBagDxeivaP+FP+Hf7+of8AgT/9ag/CDw7/AH9R/wDAn/61AHi9Fe0H4QeHf7+o5/6+f/rUf8Kf8O/39Q/8Cf8A61AHi9Fe0f8ACoPDv9/Uf/An/wCtR/wqDw7jl9R/8Cf/AK1AHi9Fe0f8Kg8O4+/qP/gT/wDWo/4U/wCHf7+of+BP/wBagDxYkKCSQAOpNeq/CPwxPb+dr95G0Ymj8m1RxglCQWfHYHAA9hnvXR6X8M/DWmTrOLJrmRDlTdSGQA+u08fpXV/yoAOv0opetJ16UAeFfFH/AJHu8/65xf8AoAr1vwb/AMiVon/XjD/6AK8k+KP/ACPd5/1zi/8AQBXrfg3/AJErRP8Arxh/9AFAG19KWkpaADpSe5o6cmj3NAB7mj3o68migDh/inrOoaNpVhJpt3LbPJcFWaPGWG0nHIqT4W6tf6z4fu59SupbmVLxkVpMZC7EOOPcms34y/8AIF03/r6P/oBqb4N/8ivff9fzf+i0oA9A60dfpR1+lFAB1o9hR14FHsKAD2FHTgUdOBR/OgA6fWjp7mjp9aOn1oAOn1o6UdKPc0AHuaPc0e5ooAKOv0o6/Sjr9KADr9KWk60deKADr0o9hRR9KAPCvij/AMj3ef8AXOL/ANAFet+Df+RK0T/rxh/9AFeSfFH/AJHu8/65xf8AoAr1vwb/AMiVon/XjD/6AKANr2pcUnTp1pcUAHuaTryaKKAD+VHWjr9KOv0oA85+Mv8AyBdN/wCvlv8A0A1N8G/+RXvv+v5v/RaU34xxM/h+wlUfIl1hj9UbH8qi+DV3CdG1Gz3jz0uvOK99rIoB/NSKAPR6PYUdeBR7CgA9hR04FHTpR/OgA6fWjp9aOn1o6fWgA6fWjpR0o9zQAe5o9zR7migAo6/Sjr9KOv0oAOv0o60UfyoAOtHtR7UfSgA9hRRRQB4V8Uf+R7vP+ucX/oAr1vwb/wAiVonr9hh/9AFePfEq6hn8cai8ThkiCRsR/eVBuH4HI/CvZfCcL23hDR4pBh0sogwPY7BQBrdPrS0nSl+tACUdaU0UAJ1+lHWlooAzte0aDxBo1xp1zkRzLgOByjDkMPoa8J1DTNc8DauJHMtrLGSI7uL/AFcg9j05/un8q+h+1NeNJEKOoZT1BGQaAPBx8VPEgGP7Vg/78xf4Uf8AC1PEn/QUg/78x/4V7Z/Ymln/AJhtn/34T/Cj+w9L/wCgbZf+A6f4UAeJ/wDC1PEn/QUg/wC/Mf8AhR/wtTxJ/wBBSD/vxH/hXtn9h6X/ANA2y/78J/hR/Yel/wDQNsv/AAHT/CgDxP8A4Wp4k/6CkH/fmP8Awo/4Wp4k/wCgpB/35j/wr2z+w9L/AOgbZf8AgOn+FH9h6X/0DbL/AMB0/wAKAPE/+Fq+JP8AoKQf9+Y/8KP+FqeJP+gpB/35j/wr2z+w9L/6Btl/4Dp/hR/Yel/9A2y/8B0/woA8T/4Wp4k/6CkH/fmP/Cj/AIWp4k/6CkH/AH5j/wAK9s/sPS/+gbZf+A6f4Uf2Hpf/AEDbL/wHT/CgDxP/AIWp4k/6CkH/AH5j/wAKP+FqeJP+gpB/35j/AMK9s/sPS/8AoG2X/gOn+FH9h6X/ANA2y/8AAdP8KAPE/wDhaniTH/IUg/78x/4Uf8LU8Sf9BSD/AL8x/wCFe2f2Hpf/AEDbL/wHT/Cj+w9L/wCgbZf+A6f4UAeJ/wDC1PEn/QUg/wC/Mf8AhR/wtXxJ/wBBSD/vzH/hXtn9h6X/ANA2y/8AAdP8KP7D0v8A6Btl/wB+E/woA8T/AOFq+JP+gpB/35j/AMKjuPid4juIHibV0QOMExxxq34EDI/CvcP7D0v/AKBtl/4Dp/hTo9H06Jw8dhaIw6MsKgj9KAPFvBfgS88SX0V1fwSw6UjB3eUFTcY52qDyQe7enTNe6ABRgDjsBSgUUAJ05NLzR3oJoA//2Q==;" vertex="1" parent="WIyWlLk6GJQsqaUBKTNV-1">
          <mxGeometry x="320" y="393.65" width="60" height="60" as="geometry" />
        </mxCell>
        <mxCell id="lY8e4gBOJ8Q8jzytJCp8-30" value="&lt;font style=&quot;font-size: 13px;&quot;&gt;&lt;b&gt;True&lt;/b&gt;&lt;/font&gt;" style="endArrow=classic;html=1;rounded=0;flowAnimation=1;strokeColor=#999999;strokeWidth=2;" edge="1" parent="WIyWlLk6GJQsqaUBKTNV-1">
          <mxGeometry width="50" height="50" relative="1" as="geometry">
            <mxPoint x="636" y="426" as="sourcePoint" />
            <mxPoint x="742" y="426" as="targetPoint" />
          </mxGeometry>
        </mxCell>
        <mxCell id="lY8e4gBOJ8Q8jzytJCp8-31" value="&lt;span style=&quot;font-size: 13px;&quot;&gt;&lt;b&gt;validation status&lt;/b&gt;&lt;/span&gt;" style="rounded=1;whiteSpace=wrap;html=1;strokeColor=none;" vertex="1" parent="WIyWlLk6GJQsqaUBKTNV-1">
          <mxGeometry x="730" y="457.81" width="120" height="30" as="geometry" />
        </mxCell>
        <mxCell id="lY8e4gBOJ8Q8jzytJCp8-32" value="" style="shape=image;verticalLabelPosition=bottom;labelBackgroundColor=default;verticalAlign=top;aspect=fixed;imageAspect=0;image=data:image/jpeg,/9j/4AAQSkZJRgABAQEAYABgAAD/2wBDAAoHBwkHBgoJCAkLCwoMDxkQDw4ODx4WFxIZJCAmJSMgIyIoLTkwKCo2KyIjMkQyNjs9QEBAJjBGS0U+Sjk/QD3/2wBDAQsLCw8NDx0QEB09KSMpPT09PT09PT09PT09PT09PT09PT09PT09PT09PT09PT09PT09PT09PT09PT09PT09PT3/wAARCADcANwDASIAAhEBAxEB/8QAHwAAAQUBAQEBAQEAAAAAAAAAAAECAwQFBgcICQoL/8QAtRAAAgEDAwIEAwUFBAQAAAF9AQIDAAQRBRIhMUEGE1FhByJxFDKBkaEII0KxwRVS0fAkM2JyggkKFhcYGRolJicoKSo0NTY3ODk6Q0RFRkdISUpTVFVWV1hZWmNkZWZnaGlqc3R1dnd4eXqDhIWGh4iJipKTlJWWl5iZmqKjpKWmp6ipqrKztLW2t7i5usLDxMXGx8jJytLT1NXW19jZ2uHi4+Tl5ufo6erx8vP09fb3+Pn6/8QAHwEAAwEBAQEBAQEBAQAAAAAAAAECAwQFBgcICQoL/8QAtREAAgECBAQDBAcFBAQAAQJ3AAECAxEEBSExBhJBUQdhcRMiMoEIFEKRobHBCSMzUvAVYnLRChYkNOEl8RcYGRomJygpKjU2Nzg5OkNERUZHSElKU1RVVldYWVpjZGVmZ2hpanN0dXZ3eHl6goOEhYaHiImKkpOUlZaXmJmaoqOkpaanqKmqsrO0tba3uLm6wsPExcbHyMnK0tPU1dbX2Nna4uPk5ebn6Onq8vP09fb3+Pn6/9oADAMBAAIRAxEAPwD2PrRnNHWj6UALSewo9hR04HWgBc9u9cH4g+K+m6XcPbabA2oSoSGkD7IgfZuS34DHvVr4oaxLpPhJordikt7IINwOCFwS2PqBj8a8/wDh/wCB4/FUtxdX7yJp9swj2Rna0r4zjPZQCOnJzQBrf8Ll1D/oFWv/AH9b/Cj/AIXLqH/QKtP+/rf4V2P/AArLwoP+YWT/ANvEv/xVH/CsvCn/AECv/JiX/wCKoA47/hcuof8AQKtP+/rf4Uf8Ll1D/oFWn/f1v8K7H/hWXhT/AKBX/kxL/wDFUv8AwrLwp/0Cv/JiX/4qgDjP+Fy6h/0CrT/v63+FL/wuXUP+gVaf9/W/wrsf+FZeFP8AoFf+TEv/AMVR/wAKy8Kf9Ar/AMmJf/iqAOO/4XLqH/QKtP8Av63+FH/C5dQ/6BVp/wB/W/wrsf8AhWXhT/oFf+TEv/xVH/Cs/Ch/5hXH/XxL/wDFUAcd/wALl1D/AKBVp/39b/Cj/hcuof8AQKtP+/rf4V2P/Cs/Ch/5hX/kxL/8VR/wrLwp/wBAr/yYl/8AiqAOO/4XLqH/AECrT/v63+FH/C5dR/6BVp/39b/Cux/4Vn4U/wCgV/5MS/8AxVH/AArPwp/0Cv8AyYl/+KoA47/hcuof9Aq0/wC/rf4V1fgr4gW/idmtLmNLXUVyyxBsrKvqpPcdx+P0lb4Y+FWUqNMKkjG4XEuR7/erxfUrdtF1+6t7aaQNZXLpFMDhwUYgNkdDxQB9J9KOg964vwH49j8RQrY6gVj1VF+i3AH8S+/qPxHHTtPegBelJR7mj3NAAPU0e9HWigApaTrS0AH0pPYUewo6cDrQAdOB1o6UdKP50AedfGX/AJAum/8AXyf/AEA1L8G/+RXvv+v5v/RaVD8Zf+QLpv8A19N/6Aam+Df/ACK99/1/N/6LSgD0GkoooAPc0e5o9zR1oAOvNHWjrR1+lAB1+lHX6UdfpRQAUewo9hR7CgA9hR0o6UdPrQAdMV87eIoxN441GJiQsmpvGSOuGlwcfnX0SOPrXzxrv/I/3n/YXP8A6OoAd4j8Oah4O1pY5GcANvtbqPK78Hgg9mHcf0r0/wABePY/EUS2GosseqRr16LcAfxL6N6j8Rx06fWtFstf02Wx1GLzIX5BHDI3ZlPYj/PFeEeJPDeoeDtYSOV327t9rdx/Lvx3B7MO4/pQB9De5o9zXE+AvHsfiGNbDUWWPU0HB6C4A/iHo3qPxHt23WgAo6/SjrR1oAOv0paTrS0AB9utJ0paT+dAB0+tHSjpRQB518Zf+QLpv/Xyf/QDUvwb/wCRXvv+v5v/AEWlRfGX/kC6b/18n/0A1L8G/wDkV77/AK/m/wDRaUAegUe5o9zR1+lAB160daOtHX6UAHX6UdfpR1+lFABR7Cj2FHsKAD2FHSjpR0+tAB0+tHT60dPrRQAD36188a7/AMj/AHntqx/9HV9D14l8UPDsul+IpNRRD9jv23hx/BJj5lJ7E4yPqfSgD231JqjrOjWevaZLY6hF5kL88cMjdmU9iK860T4vrBYxw6zZTTTxqF86Bl/ee5UkYP0P5Vpf8Lk0j/oH6h+Uf/xVAHnfiTw1qHg/V0jld9m7fa3ceV345BHow7j+leneAvHqeIYl0/UnVNTReD0FwB3Ho3qPxHtj6x8S/DmvabLY6hpWoSQyegjDIezKd3BFeYlxBdb7OWYCN90Uh+Vxg8Hg8H6UAfTvX6UdfpXD+AvHyeII10/UnVNTRflboLgDuPRvUfiPbuOtABS5FJ14FLQAnSjp9aXpSUAH1o96KPegDzr4y/8AIF03/r6P/oBqX4N/8ivff9fzf+i0qH4y/wDIF03/AK+W/wDQDU3wb/5Fe+/6/m/9FpQB6B1+lL1pKOv0oAOv0o6/Sjr9KWgA9qT2FHsKPYUAHTgUdKOlHT60AHT60dPrR0+tH86ADpz3o6c0dOTR7mgA9zUN3Z2+oWslteQRzwSDDxyLuUj6VN7migDg7v4P6DPKz289/aqf4I5VYD6bgT+tQf8ACmdJ/wCgnqWPrH/8RXofWjrQB55/wpnSf+gnqWPrH/8AEUf8KZ0n/oJ6lj6x/wDxFeh9fpRQB86+JdHfwt4lnsYrlnNuyyRTL8rAEblPHRh6ivd/DN5PqHhfS7u5ffPPaRySPjG5ioJOK8d+KP8AyPd5/wBc4v8A0AV634N/5ErRP+vGH/0AUAbXsKXpSUtACdKKKPrQAe9HuaPc0deaAPOfjL/yBdN/6+T/AOgGpvg3/wAivff9fzf+i0qL4y/8gXTf+vo/+gGpfg3z4Xvv+v5v/RaUAegdfpR1+lHX6UtACUewo9hR7CgA9hR0o6UdPrQAdPrR0+tHT60dOtAB0+tHTk0vuaT3NAB7mj3o96WgBKOv0o6/Sjr9KADrR1o60v8AKgBKOvAo9hR7CgDwr4o/8j3ef9c4v/QBXrng3/kStE/68Yf/AEAV5H8UP+R7vP8ArnF/6AK9b8G/8iVonr9hh/8AQBQBtfzpcUnT60tACe9HuaPc0devSgA69aOtUdZ1i00LTJb6/kKQR9hyznsqjuT/AJ4ryPVvixrl5O39n+VYQfwqqCR8e7MMfkKAPSvF3hKHxdZ29vNdzWywSGQGJVJY4x3p/hLwtD4T02azgupblZZjMXlCgglQMcf7teQ/8LH8U/8AQWf/AL8Rf/E0f8LH8U/9BZ/+/EX/AMTQB73R7CvBP+Fj+Kf+gs//AH4i/wDiaP8AhY/in/oLP/34i/8AiaAPe/YUdK8E/wCFj+Kf+gs//fiL/wCJo/4WP4p/6Cz/APfiL/4mgD3vp9aOn1rwP/hY/in/AKCz/wDfiL/4ml/4WP4p/wCgs/8A34i/+JoA97+vWj3NeB/8LH8U/wDQWf8A78Rf/E0f8LH8U/8AQWf/AL8xf/E0Ae+e5o68mvBP+Fj+Kf8AoLP/AN+Iv/iaT/hY/in/AKCz/wDfiL/4mgD3yjrXgf8AwsfxT/0Fn/78xf8AxNH/AAsfxT/0Fn/78Rf/ABNAHvnWjr9K8E/4WP4p/wCgs/8A34i/+Jo/4WP4p/6Cz/8AfiL/AOJoA97o68CvEdN+KviGznVruSG+i/iSSMIcezKBg/UGvWfDniKz8TaUl5YsRztkib70Td1P+PegDV9hR04FHTgUdPrQB4V8Uf8Ake7z/rnF/wCgCvW/Bp/4orRPX7DD/wCgCvJPij/yPd5/1zi/9AFet+DP+RK0T/rxh/8AQBQBtdPrS0lLzQAnXr0o60daOv0oA8l+MmoSNqmn6fuIhjgM5HqzMVH5BT+Zrzeu9+MX/I2Wn/Xin/ob1wVABRRWjp/h3WNWtvtGnaXc3UG4p5kYXGR1HJFAGdRW3/whXib/AKAN9+S//FUf8IV4m/6AN9+S/wDxVAGJRW3/AMIV4m/6AN7+S/8AxVVk8OaxLqM2nxaZcPewKHlgG3cgOME8+46etAGbRW3/AMIV4m/6AN7+S/8AxVZFxby2txJBcRtFNGxV0YYKkdQaAI6KfDFJcTxwQRtJNKwSONBksx6AVsf8IV4m/wCgDe/kn/xVAGJRWjdeHtXsrq2tbrTp4ri6O2CJtu6Q+wB/nirX/CFeJf8AoA3v5L/8VQBiUVt/8IV4m/6AN7+S/wDxVH/CFeJv+gDffkv/AMVQBiUVq3nhfXNPtJLq90m6t7ePG+SQLgZOB0PqRWVQAV3Hwk1GS28XPZgnyru3bcvbcmCD+RYfjXD11fwv/wCR/s/+uM3/AKDQB7v0+tHT60dPrR0+tAHhXxR/5Hu8/wCucX/oAr1vwbx4K0T/AK8Yf/QBXknxQ/5Hu8/65xf+gCvW/BuB4K0Q/wDTjD/6AKANr3NLSe5paAE6/Sjr9KOv0ooA8a+MX/I2Wv8A14p/6G9cFXe/GH/kbLT/AK8U/wDQ3rgqACvY/hPd29v4NKzXEMbm7lO15ADjI7ZrxykIBPKgn3FAH07Dd21wxWCeKVgMkI4Yj8qm4Xk15B8GABr2q4AH+ix9B/ttXrV3/wAec+f+ebfyNAEX9pWOM/bLY/8AbVf8a8b8W63LpHxTudU0+RZGiaIja2VkXykDKSOx6f8A6q4hEXy1+Veg7U/AHQYoA+ltJ1O21nS7fULR90E6blz1HqD7g5B+leb/ABa8M7ZE1+1j+VsRXYA79Ef/ANlP/Aazfhd4q/srVf7Ju5MWd6/7oseI5v8ABun1x616/fWUOpWE9pdJuhnQxuPYjFAHlfwj8NfabyXX7pP3UBMNoD3fo7/h90fVq9UvbuCwspru6cR28KF3Y9gKZpem2+kaZbWFmmy3t4xGg74Hc+56mvM/iv4q86YaDaP+7jIe7Kn7zdVT8Op98elAHPW+vy+IfibpupXR8tDeIEVjxFGM4Gf5+5Ne2/2nY/8AP5bY/wCuq/418z9RzTSi7T8q9PSgD6jRlkRWQhkYZDA5BHtUc1zBb7fOmjiDdC7hc/TNZ/hT/kUNGA4AsYf/AEAVwvxpAMOjZAPzTdR7JQB0HxFvrSXwHqUcVzA7kR4VZASf3i9s14ZSBVHIUA+wpaACur+F/wDyP9n/ANcZv/Qa5Sur+F//ACUCz/64zf8AoNAHu/T60dKOnWj3NAHhXxR/5Hu8/wCucX/oAr1vwZ/yJWiH/pxh/wDQBXknxR/5Hu8/65xf+gCvW/Bv/IlaJ/14w/8AoAoA2vrS9aTr9KXrQAnWj2FHsKPYUAeNfGH/AJGy0/68U/8AQ3rgq734w/8AI2Wn/Xin/ob1wVABRRRQB6J8Gf8AkPar/wBe0f8A6G1es3f/AB5z/wDXNv5V5L8Gf+Q9qv8A16x/+htXrV3/AMec5P8Azzb+VAHzCn3F+gpaan3F+gpxIGSTgDvQBPY2FzquoW9hYruurlwkY9D3Y+gAySfavpWzhkgsoIZp2nkjjVXlYYMhAwWP161wXwp8JnT7A65fRkXV4mIFYcxw9c/VuD9Me9df4k1yHw7odxqE+D5YxGmf9Y5+6v5/pmgDRnEr28gt2VJShCMwyA2OCR3Ga+a9Ut7y01W6g1IN9sSVvOLHJLZyTnvnOc9817/4W8QReJtBgv4gFcjZNGP+Wcg6r9O49iK5j4oeEf7UsP7YsY83lqv75VHMsQ/qvX6Z9qAPHKQ9D9KX0pD90/SgD6O8K/8AIo6MB/z4w/8AoArhvjQMQ6N/vTfySu58K/8AIo6N/wBeMP8A6AK4b40/6nRv96b+SUAeV0UUUAFdX8L/APkf7P8A64zf+g1yldX8L/8Akf7L/rjN/wCg0Ae7+5o9zR7migDwr4o/8j3ef9c4v/QBXrfg0f8AFFaJ6fYYf/QBXknxR/5Hu8/65xf+gCvW/BvPgrRPT7DD/wCgCgDa6/SlpKWgBD6CjpS0nT60AeNfGH/kbLT/AK8U/wDQ3rgq734xA/8ACV2h/wCnFf8A0N64KgAooooA9C+DbKmuaqzsqj7NGMk4/javV7qeI2k/72P/AFbfxj0NfMxAPUA0m1f7o/KgAT7i/QV03gTwuPEuvL9rCjTbQiS4LHAkP8Mf44yfYe9c1QQD1ANAH08J4eAJI8DjAYV4l8SPFP8Ab+ufZbV82FkSiEHiR+jN9Ow+hPeuN2r/AHR+VLQB1Xw+8UHw3rwSd8WF4RHP6If4X/DofY+1e6faIu0sf/fQr5hpNq/3R+VAHY/EPwqmg6t9rsQp0+7YlQpBET9Sn07j8R2rjz0P0pAAOgApaAPorwvNGvhLR1MiBhZQggsP7grh/jNIjw6NsZWw02cHPZK8s2j0H5UAAdABQAtFFFABXWfC/wD5H+z/AOuM3/oNcnXWfC8f8V/Z+0ExP/fIoA9396Tr9KOv0o6/SgDwr4o/8j3ef9c4v/QBXrfgz/kStE/68Yf/AEAV5J8Uf+R7vP8ArnF/6AK9b8G/8iVon/XjD/6AKANrrS0nsKWgBOlHT60dPrR9etAHA/FTwxPq2mw6lZRGW4swRJGoyzRnnj1IPOPQmvGwQRkHI9a+ovrXM6x8PPD2tTtcXFl5M7nLSWzmMsfUgcE++KAPA6K9o/4VB4cx/rNQH/bz/wDWo/4VB4cP/LTUP/An/wCtQB4vRXtH/CoPDv8Af1H/AMCf/rUf8Kg8O/39R/8AAn/61AHi9Fe0f8Kg8O/39R/8Cf8A61H/AAp/w7/f1D/wJ/8ArUAeL0V7R/wqDw7/AH9R/wDAn/61H/CoPDufv6j/AOBP/wBagDxeivaP+FP+Hf7+of8AgT/9ag/CDw7/AH9R/wDAn/61AHi9Fe0H4QeHf7+o5/6+f/rUf8Kf8O/39Q/8Cf8A61AHi9Fe0f8ACoPDv9/Uf/An/wCtR/wqDw7jl9R/8Cf/AK1AHi9Fe0f8Kg8O4+/qP/gT/wDWo/4U/wCHf7+of+BP/wBagDxYkKCSQAOpNeq/CPwxPb+dr95G0Ymj8m1RxglCQWfHYHAA9hnvXR6X8M/DWmTrOLJrmRDlTdSGQA+u08fpXV/yoAOv0opetJ16UAeFfFH/AJHu8/65xf8AoAr1vwb/AMiVon/XjD/6AK8k+KP/ACPd5/1zi/8AQBXrfg3/AJErRP8Arxh/9AFAG19KWkpaADpSe5o6cmj3NAB7mj3o68migDh/inrOoaNpVhJpt3LbPJcFWaPGWG0nHIqT4W6tf6z4fu59SupbmVLxkVpMZC7EOOPcms34y/8AIF03/r6P/oBqb4N/8ivff9fzf+i0oA9A60dfpR1+lFAB1o9hR14FHsKAD2FHTgUdOBR/OgA6fWjp7mjp9aOn1oAOn1o6UdKPc0AHuaPc0e5ooAKOv0o6/Sjr9KADr9KWk60deKADr0o9hRR9KAPCvij/AMj3ef8AXOL/ANAFet+Df+RK0T/rxh/9AFeSfFH/AJHu8/65xf8AoAr1vwb/AMiVon/XjD/6AKANr2pcUnTp1pcUAHuaTryaKKAD+VHWjr9KOv0oA85+Mv8AyBdN/wCvlv8A0A1N8G/+RXvv+v5v/RaU34xxM/h+wlUfIl1hj9UbH8qi+DV3CdG1Gz3jz0uvOK99rIoB/NSKAPR6PYUdeBR7CgA9hR04FHTpR/OgA6fWjp9aOn1o6fWgA6fWjpR0o9zQAe5o9zR7migAo6/Sjr9KOv0oAOv0o60UfyoAOtHtR7UfSgA9hRRRQB4V8Uf+R7vP+ucX/oAr1vwb/wAiVonr9hh/9AFePfEq6hn8cai8ThkiCRsR/eVBuH4HI/CvZfCcL23hDR4pBh0sogwPY7BQBrdPrS0nSl+tACUdaU0UAJ1+lHWlooAzte0aDxBo1xp1zkRzLgOByjDkMPoa8J1DTNc8DauJHMtrLGSI7uL/AFcg9j05/un8q+h+1NeNJEKOoZT1BGQaAPBx8VPEgGP7Vg/78xf4Uf8AC1PEn/QUg/78x/4V7Z/Ymln/AJhtn/34T/Cj+w9L/wCgbZf+A6f4UAeJ/wDC1PEn/QUg/wC/Mf8AhR/wtTxJ/wBBSD/vxH/hXtn9h6X/ANA2y/78J/hR/Yel/wDQNsv/AAHT/CgDxP8A4Wp4k/6CkH/fmP8Awo/4Wp4k/wCgpB/35j/wr2z+w9L/AOgbZf8AgOn+FH9h6X/0DbL/AMB0/wAKAPE/+Fq+JP8AoKQf9+Y/8KP+FqeJP+gpB/35j/wr2z+w9L/6Btl/4Dp/hR/Yel/9A2y/8B0/woA8T/4Wp4k/6CkH/fmP/Cj/AIWp4k/6CkH/AH5j/wAK9s/sPS/+gbZf+A6f4Uf2Hpf/AEDbL/wHT/CgDxP/AIWp4k/6CkH/AH5j/wAKP+FqeJP+gpB/35j/AMK9s/sPS/8AoG2X/gOn+FH9h6X/ANA2y/8AAdP8KAPE/wDhaniTH/IUg/78x/4Uf8LU8Sf9BSD/AL8x/wCFe2f2Hpf/AEDbL/wHT/Cj+w9L/wCgbZf+A6f4UAeJ/wDC1PEn/QUg/wC/Mf8AhR/wtXxJ/wBBSD/vzH/hXtn9h6X/ANA2y/8AAdP8KP7D0v8A6Btl/wB+E/woA8T/AOFq+JP+gpB/35j/AMKjuPid4juIHibV0QOMExxxq34EDI/CvcP7D0v/AKBtl/4Dp/hTo9H06Jw8dhaIw6MsKgj9KAPFvBfgS88SX0V1fwSw6UjB3eUFTcY52qDyQe7enTNe6ABRgDjsBSgUUAJ05NLzR3oJoA//2Q==;" vertex="1" parent="WIyWlLk6GJQsqaUBKTNV-1">
          <mxGeometry x="750" y="393.65" width="60" height="60" as="geometry" />
        </mxCell>
      </root>
    </mxGraphModel>
  </diagram>
</mxfile>
